# xmcd CD database file
#
# Track frame offsets:
#	150
#	13333
#	25301
#	40976
#	55756
#	69798
#	82311
#	96969
#	110668
#	120132
#	134997
#	151313
#	169922
#	185126
#	199687
#	215142
#	227413
#	237408
#	254138
#	263360
#	273937
#	290139
#	310033
#	325519
#	340649
#
# Disc length: 4735 seconds
#
# Revision: 0
# Processed by: cddbd v1.5.2PL0 Copyright (c) Steve Scherf et al.
# Submitted via: CDex 1.51
#
DISCID=73127d19
DTITLE=Various Artist - Steve's Super Sounds - January 2015
DYEAR=2015
DGENRE=Salsa
TTITLE0=Josie and The Pussycats - I Wish You Well
TTITLE1=The Hellacopters - 16 With a Bullet
TTITLE2=DM3 - TV Sound
TTITLE3=Stealer's Wheel - I Get By
TTITLE4=Ex Hex - How You Got That Girl
TTITLE5=Sam, Chaley and Jonathan - I Ain't Leaving Without Your Love
TTITLE6=Slaid Cleaves - Black T-Shirt
TTITLE7=Gwenn Stewart - I Thought It Over
TTITLE8=Big Al Downing - Cornbread Row
TTITLE9=Lady - Sweet Lady
TTITLE10=Ironbridge - Just a Day
TTITLE11=Lake - On The Run
TTITLE12=The Bats - Not My Girl Anymore
TTITLE13=The Seashells - Lovebirds
TTITLE14=The Hang-Ups - Parkway
TTITLE15=The Proper Ornaments - First Step Out
TTITLE16=Jimmy Webb - I Can Do It On My Own
TTITLE17=Doris Duke - I Wish I Could Sleep
TTITLE18=The Chieftones - I Shouldn't Have Did What I Done
TTITLE19=George Jackson - I Can't Do Without You
TTITLE20=Eric Tagg - No One There
TTITLE21=Cory Branan - Long Song 8
TTITLE22=Mr D - Island Girl
TTITLE23=Black Moth Super Rainbow - Twin Of Myself
TTITLE24=Winter Mountain - The January Stars
EXTD=YEAR: 2015
EXTT0=
EXTT1=
EXTT2=
EXTT3=
EXTT4=
EXTT5=
EXTT6=
EXTT7=
EXTT8=
EXTT9=
EXTT10=
EXTT11=
EXTT12=
EXTT13=
EXTT14=
EXTT15=
EXTT16=
EXTT17=
EXTT18=
EXTT19=
EXTT20=
EXTT21=
EXTT22=
EXTT23=
EXTT24=
PLAYORDER=
